<?xml version="1.0" encoding="utf-8"?>
<!-- Generator: Adobe Illustrator 26.0.2, SVG Export Plug-In . SVG Version: 6.00 Build 0)  -->
<svg version="1.1" id="Layer_1" xmlns="http://www.w3.org/2000/svg" xmlns:xlink="http://www.w3.org/1999/xlink" x="0px" y="0px"
	 viewBox="0 0 554.7 208.5" style="enable-background:new 0 0 554.7 208.5;" xml:space="preserve">
<style type="text/css">
	.st0{fill:#FFFFFF;}
	.st1{fill:url(#SVGID_1_);}
	.st2{opacity:5.000000e-02;}
	.st3{fill:url(#SVGID_00000040575556079901826500000017167458417874591616_);}
	.st4{fill:#1D2D51;}
</style>
<g>
	<g>
		<polygon class="st0" points="90.5,0 -0.1,54.4 90.5,107.2 181.1,52.7 		"/>
		<linearGradient id="SVGID_1_" gradientUnits="userSpaceOnUse" x1="91.9349" y1="-0.3377" x2="86.6861" y2="194.2061">
			<stop  offset="3.743315e-02" style="stop-color:#EB8123"/>
			<stop  offset="0.9786" style="stop-color:#CF2E29"/>
		</linearGradient>
		<polygon class="st1" points="90.5,15.9 28,53.7 90.5,89.9 153,52.3 		"/>
		<polygon class="st2" points="90.5,15.9 90.5,89.9 153,52.3 		"/>
		
			<linearGradient id="SVGID_00000139983389567506046970000002611963789799801534_" gradientUnits="userSpaceOnUse" x1="93.286" y1="-2.4301" x2="87.7574" y2="202.4804">
			<stop  offset="3.743315e-02" style="stop-color:#EB8123"/>
			<stop  offset="0.9786" style="stop-color:#CF2E29"/>
		</linearGradient>
		<polygon style="fill:url(#SVGID_00000139983389567506046970000002611963789799801534_);" points="90.5,107.2 0,54.4 0,151.6 
			24.4,167.5 5,204.3 52.9,185 90.8,208.5 180.8,153.2 180.8,52.8 		"/>
		<polygon class="st2" points="90.5,107.2 90.8,208.5 180.8,153.2 180.8,52.8 		"/>
	</g>
</g>
<g>
	<path class="st4" d="M242.8,79.8v71.8h-12.7V79.8h-13.5v-12h39.7v12H242.8z"/>
	<path class="st4" d="M296,151.6l-2.8-19h-14l-2.8,19h-12.7l14.5-83.7h16.1l14.5,83.7H296z M281,121.1h10.6l-5.1-35.3h-0.4
		L281,121.1z"/>
	<path class="st4" d="M360.1,85.4v2.2l-12.2,1.2v-3.1c0-4.8-2.3-7.3-6.5-7.3c-4.2,0-6.5,2.5-6.5,7.3v1.1c0,4.9,2.2,9.1,10.6,16.3
		c11.6,9.8,15.9,16.7,15.9,26.8v4.2c0,12-7.1,18.8-19.6,18.8c-12.6,0-19.6-6.8-19.6-18.8v-5.6l12.2-1.2v6c0,5.3,2.4,7.9,7.2,7.9
		c4.8,0,7.2-2.6,7.2-7.9v-2.8c0-5.3-2.5-9.4-11-16.6c-11.6-9.8-15.6-16.7-15.6-26.6v-1.8c0-12,6.8-18.8,18.9-18.8
		C353.3,66.7,360.1,73.5,360.1,85.4z"/>
	<path class="st4" d="M405.2,151.6l-2.8-19h-14l-2.8,19H373l14.5-83.7h16.1l14.5,83.7H405.2z M390.1,121.1h10.6l-5.1-35.3h-0.4
		L390.1,121.1z"/>
	<path class="st4" d="M468.6,151.6l-7.2-49.9h-0.2l-7.3,49.9H441L428,67.9h13l7.3,55.5h0.2l7.2-55.5H467l7.2,55.5h0.2l7.3-55.5h12.7
		l-12.9,83.7H468.6z"/>
	<path class="st4" d="M554.7,151.6h-13.5L528.7,115l-5.5,10.8v25.8h-12.7V67.9h12.7v34.9h0.2l17.6-34.9h13.3l-17.2,33.3L554.7,151.6
		z"/>
</g>
</svg>
